<?xml version="1.0"?>
<svg xmlns="http://www.w3.org/2000/svg" height="512px" viewBox="-61 0 512 512" width="512px" class=""><g transform="matrix(0.817907 0 0 0.817907 35.5081 46.6158)"><path d="m210 135h-30v45h-45v30h45v45h30v-45h45v-30h-45zm0 0" data-original="#000000" class="active-path" data-old_color="#ffffff" fill="#ffffff"/><path d="m195 60c-74.4375 0-135 60.5625-135 135s60.5625 135 135 135 135-60.5625 135-135-60.5625-135-135-135zm0 240c-57.898438 0-105-47.101562-105-105s47.101562-105 105-105 105 47.101562 105 105-47.101562 105-105 105zm0 0" data-original="#000000" class="active-path" data-old_color="#ffffff" fill="#ffffff"/><path d="m195 0c-107.523438 0-195 87.476562-195 195 0 43.886719 14.238281 85.332031 41.183594 119.859375l153.816406 197.140625 153.816406-197.144531c26.945313-34.523438 41.183594-75.96875 41.183594-119.855469 0-107.523438-87.476562-195-195-195zm130.164062 296.402344-130.164062 166.828125-130.164062-166.828125c-22.789063-29.203125-34.835938-64.265625-34.835938-101.402344 0-90.980469 74.019531-165 165-165s165 74.019531 165 165c0 37.136719-12.046875 72.199219-34.835938 101.402344zm0 0" data-original="#000000" class="active-path" data-old_color="#ffffff" fill="#ffffff"/></g> </svg>
