<?xml version="1.0"?>
<svg xmlns="http://www.w3.org/2000/svg" height="512px" viewBox="0 0 496 496" width="512px"><g transform="matrix(0.817907 0 0 0.817907 45.159 45.159)"><path d="m104 448h80v16h-80zm0 0" data-original="#000000" class="active-path" data-old_color="#ffffff" fill="#ffffff"/><path d="m144 312c35.289062 0 64-28.710938 64-64s-28.710938-64-64-64-64 28.710938-64 64 28.710938 64 64 64zm0-112c26.472656 0 48 21.527344 48 48s-21.527344 48-48 48-48-21.527344-48-48 21.527344-48 48-48zm0 0" data-original="#000000" class="active-path" data-old_color="#ffffff" fill="#ffffff"/><path d="m360 112c-26.457031 0-51.089844 7.710938-72 20.832031v-92.832031c0-22.054688-17.945312-40-40-40h-208c-22.054688 0-40 17.945312-40 40v416c0 22.054688 17.945312 40 40 40h208c22.054688 0 40-17.945312 40-40v-92.832031c20.910156 13.121093 45.542969 20.832031 72 20.832031 74.992188 0 136-61.007812 136-136s-61.007812-136-136-136zm-320-96h208c13.230469 0 24 10.769531 24 24v8h-256v-8c0-13.230469 10.769531-24 24-24zm208 464h-208c-13.230469 0-24-10.769531-24-24v-24h256v24c0 13.230469-10.769531 24-24 24zm24-64h-256v-352h256v80.496094c-13.59375 11.566406-24.832031 25.769531-33.039062 41.792968l-37.015626-38.960937-12.136718 7.3125c-3.898438-1.90625-7.976563-3.585937-12.175782-5.007813l-3.367187-13.632812h-60.53125l-3.367187 13.632812c-4.199219 1.421876-8.277344 3.101563-12.175782 5.007813l-11.992187-7.226563-42.792969 42.792969 7.226562 11.992188c-1.898437 3.898437-3.578124 7.96875-5 12.175781l-13.632812 3.359375v60.53125l13.625 3.367187c1.429688 4.207032 3.109375 8.277344 5.007812 12.175782l-7.226562 11.992187 42.792969 42.792969 11.992187-7.226562c3.898438 1.898437 7.976563 3.578124 12.175782 5l3.367187 13.632812h60.53125l3.367187-13.632812c4.199219-1.421876 8.277344-3.101563 12.175782-5l12.136718 7.304687 37.023438-38.9375c8.207031 16.019531 19.4375 30.210937 33.03125 41.777344zm-205.191406-125.742188c-2.96875-5.417968-5.402344-11.320312-7.214844-17.554687l-1.289062-4.421875-10.304688-2.546875v-35.46875l10.296875-2.554687 1.289063-4.414063c1.820312-6.234375 4.246093-12.136719 7.222656-17.554687l2.207031-4.039063-5.449219-9.039063 25.089844-25.089843 9.039062 5.449219 4.039063-2.214844c5.425781-2.976563 11.328125-5.410156 17.554687-7.222656l4.421876-1.289063 2.554687-10.296875h35.46875l2.546875 10.296875 4.421875 1.289063c6.226563 1.8125 12.136719 4.246093 17.554687 7.222656l4.039063 2.214844 8.894531-5.359376 32.886719 34.609376c-5.132813 14.3125-8.078125 29.664062-8.078125 45.726562 0 16.070312 2.945312 31.425781 8.089844 45.753906l-32.890625 34.589844-8.894531-5.367188-4.039063 2.207032c-5.425781 2.976562-11.328125 5.417968-17.554687 7.222656l-4.421876 1.289062-2.554687 10.304688h-35.46875l-2.546875-10.296875-4.421875-1.289063c-6.226563-1.8125-12.136719-4.246093-17.554687-7.222656l-4.039063-2.207031-9.039063 5.449219-25.089843-25.089844 5.449219-9.039062zm293.191406 77.742188c-66.167969 0-120-53.832031-120-120s53.832031-120 120-120 120 53.832031 120 120-53.832031 120-120 120zm0 0" data-original="#000000" class="active-path" data-old_color="#ffffff" fill="#ffffff"/><path d="m360 192c13.230469 0 24-10.769531 24-24s-10.769531-24-24-24-24 10.769531-24 24 10.769531 24 24 24zm0-32c4.414062 0 8 3.59375 8 8s-3.585938 8-8 8-8-3.59375-8-8 3.585938-8 8-8zm0 0" data-original="#000000" class="active-path" data-old_color="#ffffff" fill="#ffffff"/><path d="m384 208h-64v48h16v48h-16v48h80v-48h-16zm0 128h-48v-16h16v-80h-16v-16h32v96h16zm0 0" data-original="#000000" class="active-path" data-old_color="#ffffff" fill="#ffffff"/></g> </svg>
